<svg width="41" height="59" viewBox="0 0 41 59" fill="none" xmlns="http://www.w3.org/2000/svg">
<path id="Vector" d="M20.7452 9.51877C14.7686 9.55273 9.93532 14.4856 9.96959 20.5164C9.97532 21.5234 10.7883 22.3345 11.7862 22.3288C12.7842 22.3231 13.5879 21.5029 13.5822 20.4959C13.5593 16.4746 16.783 13.1868 20.7659 13.1641C21.7639 13.1584 22.5675 12.3382 22.5618 11.3312C22.5561 10.3241 21.7431 9.5131 20.7452 9.51877ZM11.966 52.764C11.968 53.1229 12.075 53.472 12.2742 53.7693L15.0651 57.9503C15.4033 58.4565 15.9695 58.7586 16.5735 58.7551L25.4751 58.7045C26.0802 58.7011 26.6429 58.3926 26.9742 57.8826L29.7173 53.6702C29.9121 53.3706 30.0151 53.0192 30.0142 52.6615L29.9919 47.7425L11.9335 47.8451L11.966 52.764ZM20.6934 0.405395C9.14668 0.471014 0.877932 9.97002 0.938159 20.5677C0.966883 25.6222 2.85018 30.223 5.93073 33.7291C7.82156 35.8817 10.7938 40.4 11.9082 44.1941L11.9083 44.2009L17.3271 44.1701L17.3271 44.1565C17.3228 43.6131 17.2396 43.0736 17.0752 42.555C16.4326 40.5297 14.4571 35.1912 9.98568 30.1016C7.65169 27.4457 6.39289 24.0671 6.36266 20.5369C6.29241 12.1482 13.0161 5.91722 20.7244 5.87342C28.6924 5.82814 35.2119 12.3324 35.2576 20.3727C35.2777 23.9007 34.0281 27.3118 31.739 29.978C27.3527 35.0849 25.4288 40.4342 24.7992 42.4872C24.6367 43.015 24.5553 43.5649 24.5579 44.1176L24.5579 44.129L29.9768 44.0982L29.9768 44.0925C31.048 40.2849 33.9687 35.7331 35.8349 33.5603C38.8743 30.0183 40.7052 25.3964 40.6765 20.3419C40.6135 9.26915 31.6666 0.343035 20.6934 0.405395Z" fill="#E5E5E5"/>
</svg>
